<svg width="217" height="273" viewBox="0 0 217 273" fill="none" xmlns="http://www.w3.org/2000/svg">
<path d="M84.0273 85.043V57.0156C84.0273 53.1745 83.2786 49.5612 81.7812 46.1758C80.349 42.7253 78.3633 39.7305 75.8242 37.1914C73.2852 34.6523 70.2904 32.6667 66.8398 31.2344C63.4544 29.737 59.8411 28.9883 56 28.9883C52.1589 28.9883 48.513 29.737 45.0625 31.2344C41.6771 32.6667 38.7148 34.6523 36.1758 37.1914C33.6367 39.7305 31.6185 42.7253 30.1211 46.1758C28.6888 49.5612 27.9727 53.1745 27.9727 57.0156V85.043H84.0273ZM112.055 141H84.0273V112.973H27.9727V141H0.0429688V57.0156C0.0429688 49.2682 1.50781 42.0091 4.4375 35.2383C7.36719 28.4023 11.3385 22.4453 16.3516 17.3672C21.4297 12.2891 27.3542 8.28516 34.125 5.35547C40.9609 2.42578 48.2526 0.960938 56 0.960938C63.7474 0.960938 71.0065 2.42578 77.7773 5.35547C84.6133 8.28516 90.5703 12.2891 95.6484 17.3672C100.727 22.4453 104.73 28.4023 107.66 35.2383C110.59 42.0091 112.055 49.2682 112.055 57.0156V141ZM216.396 233.207C216.396 238.676 215.354 243.852 213.271 248.734C211.187 253.552 208.323 257.751 204.677 261.332C201.096 264.913 196.864 267.745 191.981 269.828C187.164 271.911 181.988 272.953 176.454 272.953C171.506 272.953 166.754 272.107 162.196 270.414C157.639 268.656 153.505 266.117 149.794 262.797C146.148 266.117 142.047 268.656 137.489 270.414C132.997 272.107 128.244 272.953 123.231 272.953C117.698 272.953 112.522 271.911 107.704 269.828C102.886 267.745 98.6546 264.913 95.0088 261.332C91.4281 257.751 88.596 253.552 86.5127 248.734C84.4294 243.852 83.3877 238.676 83.3877 233.207V166.605H110.048V233.207C110.048 235.03 110.373 236.755 111.024 238.383C111.741 239.945 112.685 241.345 113.856 242.582C115.093 243.754 116.493 244.698 118.056 245.414C119.683 246.065 121.409 246.391 123.231 246.391C125.054 246.391 126.78 246.065 128.407 245.414C130.035 244.698 131.467 243.754 132.704 242.582C133.941 241.345 134.885 239.945 135.536 238.383C136.252 236.755 136.61 235.03 136.61 233.207V166.605H163.173V233.207C163.173 235.03 163.531 236.755 164.247 238.383C164.963 239.945 165.907 241.345 167.079 242.582C168.316 243.754 169.716 244.698 171.278 245.414C172.906 246.065 174.631 246.391 176.454 246.391C178.277 246.391 180.002 246.065 181.63 245.414C183.257 244.698 184.657 243.754 185.829 242.582C187.066 241.345 188.043 239.945 188.759 238.383C189.475 236.755 189.833 235.03 189.833 233.207V166.605H216.396V233.207Z" fill="url(#paint0_linear_221_20)"/>
<defs>
<linearGradient id="paint0_linear_221_20" x1="56" y1="3" x2="141.5" y2="217" gradientUnits="userSpaceOnUse">
<stop stop-color="#FFD600"/>
<stop offset="1" stop-color="#BCDAFF"/>
</linearGradient>
</defs>
</svg>
