<svg width="388" height="227" viewBox="0 0 388 227" fill="none" xmlns="http://www.w3.org/2000/svg">
<path d="M7.49255 208.687C26.3735 197.844 43.3105 184.908 60.063 171.041C82.9117 152.128 106.295 132.734 125.652 110.179C149.751 82.0988 164.554 51.6374 177.973 17.6418C179.623 13.4631 184.551 0.590723 183.529 11.8375C182.596 22.0959 176.665 32.6939 173.496 42.3516C164.901 68.5451 155.291 94.1925 147.874 120.793C146.219 126.729 115.664 228.586 146.63 219.632C159.977 215.773 171.494 199.244 180.295 189.532C189.517 179.356 196.572 167.669 203.815 156.071M203.815 156.071C204.705 154.646 205.598 153.223 206.498 151.804C207.003 151.008 220.284 126.763 218.604 126.763C211.998 126.763 206.079 148.076 203.815 156.071ZM203.815 156.071C203.505 157.168 203.263 158.015 203.098 158.521C199.622 169.167 197.832 188.226 214.955 179.665C236.675 168.805 258.799 150.156 276.398 133.562C279.218 130.903 281.127 126.773 284.275 124.524C284.889 124.085 279.394 132.633 278.471 133.894C271.887 142.884 260.3 163.007 279.134 165.071C296.348 166.958 320.072 149.302 330.627 137.045C333.37 133.859 340.126 127.582 343.947 123.983M343.947 123.983C346.521 121.559 347.763 120.35 345.552 122.119C344.76 122.753 344.241 123.377 343.947 123.983ZM343.947 123.983C341.785 128.447 351.813 132.001 354.59 132.235C362.229 132.881 380.627 123.779 380.627 114.657M68.6866 126.597C119.863 129.521 168.439 118.007 215.536 98.8192C251.491 84.1707 292.974 65.539 314.955 32.5672" stroke="white" stroke-width="13" stroke-linecap="round"/>
</svg>
