<svg viewBox="0 0 1920 245" fill="none" xmlns="http://www.w3.org/2000/svg">
<path d="M0 85.1724C135 47.7878 0 49.1598 228 142.107C503 49.1599 284 49.1593 489.5 103.693C900 13.4895 563 -52.0192 968 160.627C1578 103.693 1216 -63.6797 1565.28 168.217C1892 5.25877 1719.5 -140.85 1920 245H0V85.1724Z" fill="#182956"/>
<path d="M1 186.816C144.5 24.6048 127.5 60.1513 251.5 169.467C637 90.125 325 -1.78403 785.5 186.816C989.5 84.1671 785.5 169.467 1128 226.487C1363 -62.3406 1243 108.91 1450.5 200.071C1658 291.232 1920 -168.477 1920 245H1V186.816Z" fill="#0E1A2B"/>
<path d="M1919 206.637C1775.5 99.6869 1621 88.643 1497 160.718C1111.5 108.406 1384.5 70.6243 1134.5 206.637C855.5 74.6934 1134.5 167.112 792 232.794C435 -59.8502 737.5 160.718 425.5 160.718C203 338.581 284.5 -107.238 0 245H1919V206.637Z" fill="#09181D"/>
</svg>
